<svg width="507" height="391" viewBox="0 0 507 391" fill="none" xmlns="http://www.w3.org/2000/svg">
<mask id="mask0_3_82320" style="mask-type:alpha" maskUnits="userSpaceOnUse" x="-135" y="0" width="642" height="636">
<path fill-rule="evenodd" clip-rule="evenodd" d="M-29.5818 371.322C-35.4495 380.217 -36.0591 393.142 -31.1821 404.318C-25.6954 417.775 -7.94008 428.267 6.15755 430.776L6.00516 430.928L8.51985 431.156C10.0439 431.308 11.2632 431.384 12.9397 431.384C21.6268 431.384 29.3996 427.887 34.6576 421.5C39.4584 415.722 41.5159 408.348 40.1443 401.353C38.544 392.99 32.9049 385.995 24.9036 382.574L23.8367 382.118L23.5382 381.986C20.3832 380.597 17.5667 379.357 14.4637 376.188C7.14821 368.585 -1.15797 361.59 -11.9026 361.59C-19.142 361.514 -25.4668 365.012 -29.5818 371.322ZM23.1509 386.756C29.6282 389.569 34.429 395.499 35.7245 402.265C36.9437 408.88 34.7338 415.342 29.4758 420.436C25.056 424.694 19.4931 426.898 12.8634 426.898C-2.75824 426.898 -19.142 415.038 -23.8666 408.348C-25.0858 406.599 -26.1527 404.622 -26.9909 402.645C-31.3345 392.23 -30.9535 381.51 -25.924 373.983C-22.5711 368.889 -17.5417 366.152 -11.7502 366.152C-5.57777 366.152 1.05194 369.421 7.3768 375.655C8.74847 376.948 9.81532 378.012 10.6536 378.925L10.7204 378.99C13.7968 381.984 15.1311 383.283 23.1509 386.756Z" fill="url(#paint0_linear_3_82320)"/>
<path fill-rule="evenodd" clip-rule="evenodd" d="M-13.503 434.577C-39.3359 416.863 -44.6701 390.253 -41.0886 371.246C-37.6594 353.075 -26.0003 339.086 -11.4455 335.665C-9.23557 335.132 -6.87328 334.904 -4.35855 334.904C-0.472183 334.904 3.49039 335.437 7.30057 336.045L8.82463 336.273C8.98463 336.313 9.16565 336.332 9.35663 336.352C9.52927 336.37 9.71071 336.389 9.89148 336.425L9.98814 336.438C15.4674 337.197 23.0449 338.247 30.9236 350.642C32.2268 352.652 33.2997 354.477 34.2856 356.155L34.2868 356.157L34.2904 356.163C34.5712 356.641 34.8448 357.106 35.1148 357.561C38.5315 363.785 39.8486 365.171 41.1833 366.575L41.2873 366.684C42.0493 367.444 42.8113 368.205 43.802 369.573C48.6028 376.188 54.5466 379.457 60.3381 382.574L60.5086 382.667C65.1708 385.218 69.6009 387.641 73.0641 391.697C81.3702 401.353 81.294 412.833 72.683 425.758C63.0052 440.355 47.5359 448.414 29.0185 448.414C14.6161 448.414 -0.472183 443.473 -13.503 434.577ZM8.97704 340.759C8.13879 340.682 7.37675 340.606 6.53853 340.454L5.39548 340.302C2.80455 339.922 0.213654 339.542 -2.37726 339.466H-3.2917C-14.1888 339.466 -23.7142 344.94 -30.0391 354.976C-39.4883 369.877 -40.0979 391.013 -31.5632 408.88C-23.5618 425.378 -0.395966 440.812 19.9503 443.321C22.9985 443.701 25.9704 443.853 28.7899 443.853C46.3167 443.853 59.8047 436.934 68.7967 423.249C76.3408 411.921 76.5694 402.798 69.5587 394.662C66.6775 391.272 62.7218 389.096 58.4557 386.75L58.052 386.527C41.2673 377.4 35.0597 366.701 30.0513 358.069L29.933 357.865C25.818 350.642 22.465 344.94 14.6161 341.823C13.0943 341.229 11.4001 341.036 9.73315 340.846C9.57684 340.828 9.42078 340.81 9.26512 340.792L9.1058 340.774L8.97704 340.759Z" fill="url(#paint1_linear_3_82320)"/>
<path fill-rule="evenodd" clip-rule="evenodd" d="M-43.2222 343.191C-52.2904 364.175 -52.4428 389.493 -43.6032 410.857C-37.888 424.237 -26.1526 437.694 -11.293 447.73C0.594727 455.713 19.8742 465.293 44.4879 465.293C51.651 465.293 58.8903 464.456 65.9772 462.784C83.9612 458.45 97.8302 448.795 108.346 433.209C118.558 418.307 120.691 405.382 114.747 394.815C108.499 383.562 98.5161 379.609 89.6765 376.112L89.2954 375.96C71.3876 368.813 68.1871 365.088 60.5668 354.368C59.1951 352.391 58.2807 350.794 57.5948 348.893C57.1376 347.677 56.6804 346.461 56.147 345.244L54.7753 341.823C48.7553 325.097 39.9919 307.686 21.1696 305.938C20.6362 305.862 20.179 305.862 19.5694 305.862C18.1215 305.862 16.7498 306.014 15.3782 306.166C15.2497 306.177 15.123 306.189 14.9975 306.201L14.1589 306.28C13.9172 306.303 13.6755 306.326 13.4295 306.349C13.2684 306.364 13.1056 306.379 12.9397 306.394C10.8822 306.546 9.05331 306.622 7.22444 306.622C1.43297 306.774 -3.52025 306.926 -10.6834 309.663C-24.6286 315.137 -36.2115 326.997 -43.2222 343.191ZM6.65341 311.261C7.18701 311.241 7.71091 311.222 8.21507 311.184L8.21608 311.183C9.28259 311.107 10.3491 311.031 11.4156 310.879C13.6253 310.651 15.8356 310.423 18.1977 310.423C22.9223 310.423 29.2472 311.26 35.8769 317.418C42.9638 324.184 46.2406 332.471 49.6697 341.291L49.7686 341.54C54.2332 352.79 58.8362 364.39 72.1497 372.842C77.133 376.033 82.1888 378.065 87.1756 380.07L87.5428 380.217C93.4866 382.574 99.2019 384.855 103.774 388.732C110.023 393.978 113.528 400.821 113.452 407.587C113.223 419.98 103.164 434.729 93.258 443.853C80.9131 455.105 64.377 460.807 44.1069 460.807C40.5253 460.807 36.8675 460.655 33.0574 460.275C3.79527 457.462 -28.7436 434.501 -39.4882 409.108C-48.7088 386.832 -47.5658 360.146 -36.5163 339.542C-28.5149 324.641 -16.4748 314.909 -2.5296 312.096C-0.388535 311.643 1.80779 311.52 3.96526 311.4L3.96808 311.4L3.97482 311.399C4.34811 311.379 4.72026 311.358 5.09073 311.336C5.61427 311.298 6.13782 311.279 6.65236 311.261H6.65341Z" fill="url(#paint2_linear_3_82320)"/>
<path fill-rule="evenodd" clip-rule="evenodd" d="M-25.3908 447.806C-4.73964 467.117 21.3219 479.51 46.0118 481.791C50.3554 482.171 54.699 482.323 58.9664 482.323H59.8046C78.0172 482.323 94.1723 478.978 107.889 472.439C122.291 465.521 134.484 454.877 144.162 440.736C157.955 420.892 160.622 404.166 152.087 390.937C143.463 377.277 131.386 373.356 118.612 369.209L118.329 369.117C104.536 364.707 90.3622 360.07 79.7699 342.583C78.3982 340.226 75.8835 335.817 75.1977 332.319C73.7498 324.641 71.5399 315.137 63.6148 299.475C58.9664 289.972 51.9556 283.129 43.2685 279.632C38.4677 277.731 32.9048 276.743 26.8848 276.743C23.1508 276.743 19.1882 277.123 14.9208 277.807C-7.17816 281.685 -27.6769 295.294 -41.1649 315.365C-55.3387 336.349 -60.9777 362.427 -57.1676 388.884C-56.1007 396.487 -54.1956 403.938 -51.4523 411.085C-46.4229 423.857 -37.3547 436.554 -25.3908 447.806ZM26.961 281.152C42.2016 281.152 52.5653 287.615 59.4998 301.376C67.1201 316.505 69.2538 325.705 70.7017 333.08C71.8447 339.238 79.4651 355.052 95.3916 364.555C102.402 368.737 109.718 371.094 116.805 373.375L117.061 373.458C124.664 375.936 131.886 378.29 138.065 382.726C147.21 389.264 152.468 398.236 152.392 407.435C152.315 423.705 138.751 443.397 125.263 455.713C108.956 470.463 86.7044 477.913 59.195 477.913C55.0038 477.913 50.7364 477.761 46.3928 477.381C23.227 475.481 -2.37733 463.316 -22.114 444.841C-33.6969 433.969 -42.3841 421.729 -47.1849 409.488C-49.7758 402.645 -51.6809 395.499 -52.6716 388.276C-60.9777 331.255 -23.6381 288.907 15.6828 282.369C19.7216 281.456 23.5318 281.152 26.961 281.152Z" fill="url(#paint3_linear_3_82320)"/>
<path fill-rule="evenodd" clip-rule="evenodd" d="M92.5721 315.365C93.4865 320.155 95.163 324.64 97.6777 328.822C111.166 351.859 129.378 356.952 146.981 361.818L147.015 361.828C156.833 364.561 166.118 367.146 174.643 372.614C187.75 380.901 195.599 393.75 195.751 406.979C195.751 419.372 190.57 432.829 179.825 448.11C162.679 473.048 141.19 487.949 112.156 494.944C100.116 497.757 87.0092 499.277 74.3595 499.277C55.7659 499.277 38.1629 496.084 23.4556 490.078C11.2631 485.212 -0.319809 478.826 -10.9883 471.071C-26.4576 459.895 -38.8787 447.122 -48.0231 433.133C-57.8533 418.003 -63.8734 401.277 -65.8547 383.562C-67.6836 367.672 -66.7691 351.783 -62.959 336.197C-59.3774 321.675 -53.5098 308.066 -45.2798 295.598C-37.5833 283.813 -27.9816 273.549 -16.6273 265.186C-0.624619 253.174 19.5693 246.027 37.3247 246.027C56.8327 246.027 71.1589 255.227 79.8461 273.474C89.2256 293.17 91.0217 305.151 92.4638 314.771L92.4959 314.985L92.5721 315.365ZM37.1722 250.665C31.9904 250.665 26.3514 251.425 20.4075 252.794C-33.9255 268.304 -68.2932 323.12 -61.4349 383.182C-60.4443 392.154 -58.3106 401.049 -55.1862 409.564C-38.9549 452.824 12.4824 490.838 59.4998 494.259C64.5293 494.64 69.5587 494.792 74.3595 494.792C108.956 494.792 136.77 485.592 157.116 467.345C174.11 451.836 191.255 427.203 191.179 407.055C191.179 395.575 184.016 384.171 172.128 376.492C164.212 371.403 155.231 368.894 145.716 366.236L145.686 366.228L144.581 365.911C135.928 363.427 126.956 360.853 118.405 356.04C103.241 347.449 90.7432 331.027 88.0761 316.125L87.9237 315.137C86.552 305.938 84.7994 294.457 75.7311 275.526C67.8822 259.028 54.9276 250.665 37.1722 250.665Z" fill="url(#paint4_linear_3_82320)"/>
<path fill-rule="evenodd" clip-rule="evenodd" d="M175.816 354.565C186.961 357.364 198.474 360.255 208.63 366.38C224.556 375.731 234.463 391.241 234.615 406.751C234.691 421.348 228.443 437.39 215.564 455.637C193.999 486.124 169.995 502.699 135.246 511.062C120.463 514.559 105.222 516.308 89.9813 516.308H88.6858C69.1778 516.232 52.6416 514.483 30.5426 505.74C-14.1125 487.873 -68.4455 443.853 -74.4656 378.545C-77.8947 342.811 -69.0551 306.546 -49.6995 276.363C-37.4308 257.127 -21.1994 241.238 -2.60582 230.442C13.8541 220.862 31.6095 215.54 47.4598 215.54C54.6991 215.54 61.3288 216.604 67.1203 218.809C79.77 223.599 89.524 233.331 96.1537 247.776C106.679 270.502 108.378 284.645 109.739 295.972L109.794 296.434C110.556 302.972 111.852 308.599 115.662 315.213C131.969 343.648 154.145 349.198 175.634 354.52L175.816 354.565ZM230.043 406.751C229.967 392.762 221.051 379.153 206.268 370.257C196.59 364.403 185.845 361.742 174.491 359.005C163.441 356.268 152.087 353.455 141.342 347.525C122.596 337.261 107.889 317.342 105.527 299.171L105.374 297.803L105.347 297.572C103.906 285.615 102.26 271.962 92.0388 249.753C89.0668 243.062 84.9519 237.132 79.6938 232.114C71.3876 224.283 59.9571 220.178 46.6978 220.178C20.941 220.178 -9.15931 235.611 -31.7917 260.473C-60.5966 292.1 -74.1608 333.916 -69.8934 378.164C-63.1113 451.228 10.806 506.956 72.9117 511.214C78.1698 511.594 83.4278 511.746 88.6096 511.746C117.719 511.746 158.869 506.044 189.122 479.054C205.658 464.304 230.272 432.829 230.043 406.751Z" fill="url(#paint5_linear_3_82320)"/>
<path fill-rule="evenodd" clip-rule="evenodd" d="M133.57 301.604C130.14 295.446 128.083 288.755 127.397 281.761C127.359 281.228 127.302 280.696 127.245 280.164C127.188 279.632 127.13 279.1 127.092 278.567C125.873 265.186 124.273 248.46 112.385 222.002C104.841 205.2 93.639 193.948 79.008 188.474C72.4545 186.041 65.1389 184.749 57.3662 184.749C24.3701 184.749 -22.9521 207.101 -54.1955 257.051C-64.7878 273.854 -72.7129 292.1 -77.6662 311.336C-94.5833 376.568 -73.1702 424.466 -52.2904 453.128C-35.5257 476.013 -12.6647 495.78 14.0065 510.301C38.163 523.454 63.9197 531.437 86.6283 532.73L87.4665 532.806C92.877 533.11 98.2874 533.262 103.545 533.262C138.523 533.262 187.903 526.495 224.175 494.183C233.548 485.82 242.464 475.633 251.456 463.088C266.544 441.876 273.784 423.325 273.555 406.447C273.479 396.791 270.278 387.592 264.106 379.077C248.027 357.257 226.995 352.467 204.82 347.449L204.808 347.446C179.132 341.593 152.77 335.584 133.57 301.604ZM268.907 406.447C269.059 422.337 262.125 439.975 247.646 460.427C238.883 472.743 230.195 482.627 221.051 490.762C185.845 522.086 137.685 528.7 103.469 528.7C97.754 528.7 91.9625 528.548 86.0949 528.168C21.2458 524.062 -49.0899 470.995 -70.8079 409.868C-85.3627 368.433 -81.4001 319.775 -59.8346 276.287C-39.9455 236.068 -7.10184 206.036 30.1616 193.872C39.9918 190.755 49.2124 189.234 57.671 189.234H57.7472C72.0735 189.234 84.1898 193.796 93.7152 202.691C99.5067 208.089 104.46 215.236 108.27 223.903C119.853 249.677 121.377 265.871 122.596 278.948C122.634 279.518 122.692 280.069 122.749 280.62C122.806 281.171 122.863 281.723 122.901 282.293C124.349 297.194 133.265 313.464 147.362 326.997C164.426 342.958 184.156 347.446 203.201 351.778L203.219 351.783L203.744 351.903C216.809 354.899 229.126 357.723 240.33 364.175C258.01 374.135 268.754 390.025 268.907 406.447Z" fill="url(#paint6_linear_3_82320)"/>
<path fill-rule="evenodd" clip-rule="evenodd" d="M309.218 389.645C311.123 394.891 312.19 400.517 312.266 406.143C312.419 416.787 309.904 428.267 304.875 440.355C300.76 449.859 294.968 459.743 287.272 470.539C276.984 484.908 266.849 496.464 256.181 505.968C214.878 542.613 158.564 550.292 118.557 550.292C112.233 550.216 105.679 550.064 99.2018 549.684C73.6737 548.163 44.7164 539.192 17.588 524.291C-12.2837 507.868 -38.0405 485.516 -56.7865 459.667C-80.4095 427.126 -104.414 372.842 -84.9055 298.943C-79.2665 277.275 -70.3507 256.747 -58.5392 237.74C-42.9175 212.423 -22.3426 191.135 0.975662 176.157C21.8554 162.7 44.2592 154.869 64.0721 154.109C65.2911 154.033 66.434 154.033 67.653 154.033C75.5782 154.033 83.4277 155.402 90.9718 158.063C99.1256 161.18 106.746 166.046 112.842 172.28C119.167 178.742 124.501 186.801 128.693 196.305C141.876 226.26 143.324 245.039 144.467 260.093C144.54 260.898 144.596 261.686 144.651 262.465C144.71 263.303 144.769 264.131 144.848 264.958C145.61 273.778 147.743 281.152 151.553 287.995C173.576 327.53 204.058 333.992 233.548 340.226L233.651 340.248C258.913 345.638 282.877 350.751 301.369 375.199C304.646 379.609 307.313 384.475 309.218 389.645ZM307.77 406.143C307.466 387.212 295.044 369.193 274.393 357.865C261.286 350.642 247.036 347.677 231.948 344.56C210.001 339.922 187.369 335.132 167.785 316.81C160.088 309.587 153.459 300.844 147.515 290.2C141.266 278.948 140.504 269.064 139.971 261.841L139.894 260.625L139.878 260.406C138.738 245.618 137.316 227.181 124.501 198.13C113.147 172.28 93.3341 158.595 67.3488 158.595C57.2137 158.595 46.1643 160.648 34.4289 164.677C-54.8052 195.621 -110.815 317.114 -78.5807 410.096C-51.2999 488.633 35.0386 541.321 99.3542 545.198C105.679 545.578 112.08 545.731 118.253 545.731C157.497 545.731 212.745 538.28 252.98 502.547C263.42 493.271 273.327 481.943 283.385 467.878C300.074 444.461 307.999 424.313 307.77 406.143Z" fill="url(#paint7_linear_3_82320)"/>
<path fill-rule="evenodd" clip-rule="evenodd" d="M161.841 241.998C161.917 244.127 162.07 246.103 162.222 248.08C162.984 258.496 165.194 266.555 169.537 274.386C194.456 319.471 228.9 326.389 262.277 333.004L262.554 333.059C290.952 338.74 317.821 344.116 338.785 371.322C342.519 376.264 345.491 381.662 347.701 387.44C349.911 393.37 351.13 399.604 351.206 405.915C351.435 417.851 348.539 430.776 342.672 444.233C338.099 454.877 331.622 465.901 322.935 478.065C311.352 494.183 299.998 507.184 288.034 517.752C241.778 558.731 178.377 567.323 133.341 567.323H133.112C126.33 567.323 119.396 567.095 112.385 566.714C73.5212 564.51 29.7805 547.403 -7.48293 519.805C-15.9415 513.571 -24.0953 506.804 -31.7918 499.657C-59.5298 473.808 -79.8761 443.397 -90.7732 411.693C-103.499 374.515 -104.109 330.115 -92.3735 286.474C-85.9724 262.525 -76.1422 239.565 -63.1114 218.429C-50.8427 198.358 -35.6782 180.263 -17.999 164.753C-0.624634 149.624 18.1214 138.219 37.5533 131.073C49.822 126.511 61.5573 123.926 72.5306 123.394C74.1309 123.318 75.7311 123.242 77.3314 123.242C86.0948 123.242 94.6296 124.762 102.86 127.651C112.08 130.997 120.539 136.547 127.397 143.541C134.484 150.764 140.352 159.811 145 170.455C159.444 203.904 160.768 224.943 161.833 241.876L161.841 241.998ZM112.614 562.153C119.548 562.533 126.559 562.761 133.341 562.761C177.539 562.761 239.721 554.322 284.909 514.255C296.568 503.915 307.77 491.218 319.125 475.328C337.947 448.947 346.939 426.214 346.634 405.839C346.253 384.475 332.003 364.175 308.456 351.63C293.759 343.845 277.857 340.644 260.974 337.245L260.45 337.14C226.457 330.311 191.274 323.244 165.499 276.439C158.646 264.056 157.956 253.039 157.346 243.313L157.345 243.29L157.269 242.15L157.259 241.999C156.194 225.527 154.863 204.949 140.733 172.28C128.159 143.237 106.06 127.879 76.798 127.879C65.1389 127.879 52.4129 130.388 39.0773 135.33C-42.3079 165.361 -101.518 265.414 -95.7264 363.111C-92.9069 411.997 -69.8173 457.994 -29.1247 496.084C11.5679 534.174 65.9009 559.492 112.614 562.153Z" fill="url(#paint8_linear_3_82320)"/>
<path fill-rule="evenodd" clip-rule="evenodd" d="M179.596 231.202C180.13 239.717 181.502 249.905 187.369 260.625C215.183 311.336 254.047 318.71 291.768 325.781L291.996 325.824C323.536 331.814 353.395 337.485 376.125 367.292C380.316 372.69 383.669 378.697 386.108 385.083C388.622 391.697 389.918 398.54 390.07 405.535C390.299 418.763 387.174 433.057 380.621 447.958C375.515 459.743 368.276 471.983 358.674 485.44C345.796 503.307 333.146 517.676 319.963 529.385C295.578 550.977 264.487 566.486 227.681 575.382C203.219 581.312 176.472 584.277 148.124 584.277C117.11 584.277 92.5722 581.616 58.7379 568.311C35.4197 559.112 13.4731 546.871 -6.64459 531.969C-15.8652 525.203 -24.781 517.828 -33.1633 509.997C-64.0257 481.183 -86.6581 447.274 -98.622 411.845C-112.491 371.246 -112.872 322.36 -99.7651 274.158C-92.7544 247.776 -81.9335 222.535 -67.6835 199.194C-54.2717 176.994 -37.7356 156.998 -18.4561 139.664C0.518524 122.71 20.941 109.937 42.1255 101.726C55.7659 96.4798 68.7967 93.4387 81.0655 92.6784L81.2859 92.6699C83.1883 92.5968 85.0226 92.5264 86.8569 92.5264C96.7634 92.5264 106.136 94.123 114.747 97.2401C124.959 100.965 134.332 107.124 141.876 114.879C149.649 122.862 156.202 132.897 161.231 144.682C176.982 181.627 178.21 204.907 179.197 223.626L179.215 223.979C179.292 226.184 179.444 228.769 179.596 231.202ZM342.519 345.396C326.059 336.881 308.228 333.46 289.405 329.886L289.397 329.885C251.374 322.663 212.133 315.209 183.483 262.678C175.939 249.068 175.329 236.676 174.796 225.728L174.719 224.359C173.805 205.884 172.586 182.848 157.04 146.354C151.706 133.886 144.695 123.546 136.237 115.639C122.901 103.246 106.365 96.936 86.8569 96.936C73.4452 96.936 58.9665 99.9771 43.6496 105.907C-44.8987 140.272 -109.9 251.045 -104.414 358.093C-101.67 411.845 -75.4562 464.532 -30.5724 506.5C14.3113 548.468 74.2834 576.294 125.797 579.107C133.189 579.487 140.58 579.715 147.82 579.715C197.276 579.715 266.621 570.364 316.915 525.887C329.869 514.483 342.291 500.342 354.94 482.703C375.896 453.432 385.879 428.191 385.498 405.535C384.964 377.404 362.942 356.04 342.519 345.396Z" fill="url(#paint9_linear_3_82320)"/>
<path fill-rule="evenodd" clip-rule="evenodd" d="M-18.9896 114.422C-39.8693 133.506 -57.8533 155.478 -72.332 179.807C-87.8012 205.352 -99.5366 232.874 -107.309 261.689C-119.045 304.949 -121.331 346.08 -113.939 383.79C-106.928 419.752 -90.9256 453.965 -66.4643 485.516C-56.7865 497.909 -46.0418 509.617 -34.6113 520.413C-15.408 538.356 6.0813 553.942 29.0185 566.79C40.7538 573.329 53.0988 579.107 65.5961 584.049C77.5601 588.763 89.9812 592.64 102.555 595.529C113.528 598.038 124.73 599.787 135.932 600.547L138.751 600.699C146.677 601.079 154.602 601.307 162.374 601.307H162.603C173.424 601.307 184.092 600.927 194.38 600.167C213.278 598.798 232.177 595.909 250.618 591.5C291.006 581.768 324.992 564.814 351.74 541.169C366.218 528.396 380.087 512.582 394.261 492.891C404.854 478.141 412.779 464.685 418.418 451.76C425.581 435.414 429.086 419.752 428.781 405.23C428.629 397.552 427.105 390.025 424.362 382.878C421.618 375.884 417.884 369.345 413.312 363.415C404.549 352.087 392.509 342.355 378.563 335.208C359.997 325.682 339.395 321.945 319.382 318.315L318.996 318.245C278.091 310.797 235.821 303.101 205.277 247.016C198.952 235.383 197.504 224.435 196.971 214.4C196.818 211.663 196.666 208.926 196.59 206.036C195.751 185.433 194.685 159.735 177.463 118.984C171.976 106.059 164.889 95.0353 156.278 86.216C147.972 77.6248 137.685 70.9343 126.483 66.8288C117.186 63.4836 107.127 61.7349 96.4585 61.7349C94.1724 61.7349 91.8101 61.811 89.4478 61.963C75.9598 62.8753 61.5574 66.3727 46.6215 72.4549C23.6081 81.6543 1.5853 95.7956 -18.9896 114.422ZM376.506 339.238C399.214 350.794 423.676 374.287 424.285 405.306C424.743 430.168 413.769 457.994 390.604 490.23C376.658 509.617 363.018 525.203 348.768 537.748C293.597 586.482 217.241 596.746 162.908 596.746C155.059 596.746 147.058 596.517 139.056 596.137C82.7419 593.248 17.2832 562.837 -31.868 516.84C-81.4764 470.387 -110.281 412.225 -113.025 353.075C-118.206 236.752 -47.3373 115.259 48.298 76.5604C65.0627 69.7939 81.1416 66.3727 96.0013 66.3727C117.491 66.3727 135.856 73.3672 150.563 87.1283C159.86 95.7956 167.48 107.124 173.195 120.657C188.893 157.759 191.027 181.479 192.018 206.417L192.094 207.481C192.627 220.634 193.237 234.243 201.314 249.144C232.863 307.154 276.222 315.061 318.134 322.664C338.785 326.389 358.369 329.962 376.506 339.238Z" fill="url(#paint10_linear_3_82320)"/>
<path fill-rule="evenodd" clip-rule="evenodd" d="M-19.523 89.3332C-41.3934 109.481 -60.7491 133.43 -77.0566 160.496C-93.6689 188.17 -106.395 218.049 -114.853 249.221C-123.617 281.456 -127.427 314.833 -126.132 348.209C-125.141 373.831 -119.73 399.376 -110.053 424.009C-100.756 447.73 -87.5726 470.691 -70.8079 492.359C-60.2156 505.968 -48.4803 518.893 -35.8306 530.677C-15.027 550.14 8.13879 566.942 33.0573 580.856C45.7832 587.926 59.195 594.237 72.7592 599.635C85.79 604.729 99.278 608.91 112.842 612.103C125.721 615.068 138.904 616.969 152.087 617.653C160.546 618.109 169.004 618.262 177.31 618.262H177.463C189.427 618.262 201.238 617.805 212.592 616.969C233.167 615.448 253.742 612.331 273.784 607.542C317.753 596.898 354.712 578.499 383.745 552.877C399.519 538.964 414.684 521.782 430.077 500.342C441.66 484.224 450.271 469.626 456.367 455.637C459.949 447.654 462.768 439.291 464.826 430.776C466.883 422.337 467.797 413.67 467.721 404.926C467.569 396.563 465.892 388.428 462.844 380.597C459.872 372.994 455.757 365.924 450.728 359.461C441.126 347.145 427.943 336.577 412.626 328.898C392.342 318.704 369.953 314.735 348.221 310.882L347.645 310.78C302.955 302.88 256.681 294.701 223.261 233.179C216.784 221.242 215.031 210.218 214.421 197.293C214.338 195.667 214.277 194.017 214.214 192.308C214.162 190.9 214.109 189.452 214.04 187.942V187.866C213.278 165.361 212.288 137.383 193.694 92.9065C188.055 79.3735 180.739 67.8172 171.9 58.4657C163.441 49.3423 152.849 42.0436 141.342 37.2538C130.521 32.8442 118.634 30.5634 105.984 30.5634C103.926 30.5634 101.793 30.6394 99.7352 30.7154C84.4183 31.5517 68.0346 35.6572 51.1175 42.7279C26.4276 53.3718 2.65215 68.9576 -19.523 89.3332ZM106.975 35.4292C118.253 35.4292 129.226 37.558 139.666 41.7395C148.886 45.5409 157.269 50.9389 164.508 57.7815C174.796 67.437 183.254 79.9057 189.503 94.8832C207.755 138.513 208.702 166.012 209.464 188.114L209.468 188.246V188.474L209.483 188.888C210.086 205.286 210.607 219.476 219.222 235.459C253.718 298.898 300.922 307.218 346.613 315.272L346.71 315.289C369.267 319.243 390.604 323.044 410.569 333.004C435.563 345.548 462.463 371.018 463.149 405.002C463.683 432.144 451.642 462.48 426.343 497.681C411.102 518.893 396.166 535.847 380.697 549.456C320.496 602.524 237.13 613.7 177.691 613.7C169.385 613.7 160.774 613.472 152.316 613.092C91.2766 610.05 20.1789 577.13 -33.1634 527.18C-69.36 493.347 -95.8788 453.052 -110.053 410.704C-116.835 390.481 -120.721 369.345 -121.636 348.057C-126.817 220.33 -51.7571 91.0058 52.8702 47.2135C71.54 39.3826 89.4478 35.4292 106.06 35.4292H106.975Z" fill="url(#paint11_linear_3_82320)"/>
<path fill-rule="evenodd" clip-rule="evenodd" d="M501.175 378.392C497.898 370.181 493.478 362.503 487.991 355.584C477.552 342.279 463.225 330.951 446.613 322.74C436.63 317.798 425.352 313.844 412.093 310.575C400.446 307.689 388.267 305.638 376.543 303.663L376.506 303.657L376.4 303.639C327.739 295.357 277.491 286.806 241.245 219.646C232.448 203.303 232.028 188.692 231.499 170.269L231.491 169.999L231.489 169.941C230.804 145.622 229.951 115.373 210.002 67.285C203.905 52.6876 195.98 40.0669 186.531 29.9551C177.386 20.0715 165.88 12.1645 153.382 6.9946C141.799 2.35687 129.15 0 115.738 0C113.299 0 110.785 0.0760282 108.27 0.228085C91.6577 1.29248 73.9785 5.77815 55.6897 13.6851C42.0493 19.6153 28.8661 26.838 16.5212 35.125C3.64282 43.7923 -8.62594 53.5999 -19.9802 64.1678C-31.7918 75.1919 -42.9174 87.2044 -52.9763 99.8251C-63.4162 112.902 -73.0178 126.815 -81.6288 141.108C-99.3841 171.063 -113.025 203.223 -122.169 236.752C-131.694 271.421 -135.962 307.23 -134.819 343.191C-132.837 399.376 -110.967 455.029 -71.4175 504.067C-60.9014 517.144 -49.3185 529.613 -37.0498 541.093L-31.1059 546.567C-16.7035 559.416 -1.23421 571.276 14.9971 581.844C30.7712 592.108 47.4597 601.231 64.6055 608.91C80.9892 616.285 98.0588 622.367 115.509 626.853C131.817 631.11 148.582 633.695 165.423 634.608C174.415 635.064 183.407 635.292 192.246 635.292C205.353 635.292 218.308 634.836 230.729 633.847C252.904 632.251 275.155 628.753 296.873 623.659C344.348 612.179 384.355 592.336 415.674 564.662C432.668 549.684 449.128 531.057 465.816 507.793C478.314 490.382 487.687 474.568 494.316 459.439C498.126 450.771 501.251 441.8 503.461 432.601C505.671 423.477 506.661 414.05 506.585 404.698C506.28 395.651 504.528 386.832 501.175 378.392ZM116.652 4.56169C128.693 4.56169 140.428 6.84254 151.554 11.2522C161.612 15.3577 170.757 21.2119 178.606 28.6626C189.808 39.1545 198.876 52.6876 205.658 69.0336C225.318 116.323 226.157 146.202 226.766 170.151C227.3 189.31 227.757 204.44 237.054 221.85C253.818 252.946 274.927 274.538 301.598 287.843C325.025 299.605 350.25 303.889 374.672 308.038L375.287 308.142L376.137 308.288C400.285 312.415 423.163 316.325 444.403 326.845C471.608 340.302 501.022 367.825 501.784 404.774C502.394 434.197 489.363 467.041 461.93 505.208C445.394 528.168 429.239 546.491 412.474 561.316C347.32 618.794 256.79 630.806 192.322 630.806C183.483 630.806 174.415 630.578 165.346 630.122C98.516 626.853 24.1415 592.716 -33.6206 538.66C-93.4403 482.475 -127.808 412.985 -130.247 343.039C-134.971 205.732 -54.2717 65.9165 57.5186 17.7906C77.9411 9.04736 97.5253 4.56169 115.738 4.56169H116.652Z" fill="url(#paint12_linear_3_82320)"/>
</mask>
<g mask="url(#mask0_3_82320)">
<g filter="url(#filter0_f_3_82320)">
<ellipse rx="326.531" ry="325.781" transform="matrix(-0.999643 -0.0267272 0.0268504 -0.999639 226.008 323.077)" fill="#F27750" fill-opacity="0.4"/>
<ellipse rx="79.6324" ry="79.4496" transform="matrix(-0.999643 -0.0267272 0.0268504 -0.999639 -77.3628 293.67)" fill="#F27750" fill-opacity="0.4"/>
<ellipse rx="123.83" ry="123.546" transform="matrix(-0.999643 -0.0267272 0.0268504 -0.999639 37.4294 447.33)" fill="#F27750" fill-opacity="0.4"/>
<ellipse rx="79.6324" ry="79.4496" transform="matrix(-0.999643 -0.0267272 0.0268504 -0.999639 211.963 306.73)" fill="#F27750" fill-opacity="0.4"/>
<ellipse rx="79.6324" ry="79.4496" transform="matrix(-0.999643 -0.0267272 0.0268504 -0.999639 91.3526 369.674)" fill="#F27750" fill-opacity="0.4"/>
<ellipse rx="79.6324" ry="79.4496" transform="matrix(-0.999643 -0.0267272 0.0268504 -0.999639 29.5081 288.162)" fill="#F27750" fill-opacity="0.4"/>
<ellipse rx="79.6324" ry="79.4496" transform="matrix(-0.999643 -0.0267272 0.0268504 -0.999639 128.34 241.368)" fill="#F27750" fill-opacity="0.4"/>
<ellipse rx="79.6324" ry="79.4496" transform="matrix(-0.999643 -0.0267272 0.0268504 -0.999639 170.425 434.153)" fill="#F27750" fill-opacity="0.4"/>
<ellipse rx="84.5856" ry="84.3915" transform="matrix(-0.999643 -0.0267272 0.0268504 -0.999639 293.888 421.102)" fill="#F27750" fill-opacity="0.4"/>
<ellipse rx="84.5856" ry="84.3915" transform="matrix(-0.999643 -0.0267272 0.0268504 -0.999639 -11.8605 168.029)" fill="#F27750" fill-opacity="0.4"/>
<ellipse rx="84.5856" ry="84.3915" transform="matrix(-0.999643 -0.0267272 0.0268504 -0.999639 16.6869 41.7793)" fill="#F27750" fill-opacity="0.4"/>
<ellipse rx="113.543" ry="113.282" transform="matrix(-0.999643 -0.0267272 0.0268504 -0.999639 279.479 162.889)" fill="#F27750" fill-opacity="0.4"/>
<ellipse rx="113.543" ry="113.282" transform="matrix(-0.999643 -0.0267272 0.0268504 -0.999639 462.699 465.165)" fill="#F27750" fill-opacity="0.4"/>
<ellipse rx="118.877" ry="118.604" transform="matrix(-0.999643 -0.0267272 0.0268504 -0.999639 434.97 475.832)" fill="#F27750" fill-opacity="0.4"/>
</g>
</g>
<defs>
<filter id="filter0_f_3_82320" x="-475.993" y="-245.708" width="1252.24" height="1094.57" filterUnits="userSpaceOnUse" color-interpolation-filters="sRGB">
<feFlood flood-opacity="0" result="BackgroundImageFix"/>
<feBlend mode="normal" in="SourceGraphic" in2="BackgroundImageFix" result="shape"/>
<feGaussianBlur stdDeviation="100" result="effect1_foregroundBlur_3_82320"/>
</filter>
<linearGradient id="paint0_linear_3_82320" x1="-166.042" y1="279.412" x2="351.3" y2="479.912" gradientUnits="userSpaceOnUse">
<stop stop-color="#FC5050"/>
<stop offset="0.56" stop-color="#7E4CA8"/>
<stop offset="1" stop-color="#0048FF"/>
</linearGradient>
<linearGradient id="paint1_linear_3_82320" x1="-166.042" y1="279.412" x2="351.3" y2="479.912" gradientUnits="userSpaceOnUse">
<stop stop-color="#FC5050"/>
<stop offset="0.56" stop-color="#7E4CA8"/>
<stop offset="1" stop-color="#0048FF"/>
</linearGradient>
<linearGradient id="paint2_linear_3_82320" x1="-166.042" y1="279.412" x2="351.3" y2="479.912" gradientUnits="userSpaceOnUse">
<stop stop-color="#FC5050"/>
<stop offset="0.56" stop-color="#7E4CA8"/>
<stop offset="1" stop-color="#0048FF"/>
</linearGradient>
<linearGradient id="paint3_linear_3_82320" x1="-166.042" y1="279.412" x2="351.3" y2="479.912" gradientUnits="userSpaceOnUse">
<stop stop-color="#FC5050"/>
<stop offset="0.56" stop-color="#7E4CA8"/>
<stop offset="1" stop-color="#0048FF"/>
</linearGradient>
<linearGradient id="paint4_linear_3_82320" x1="-166.042" y1="279.412" x2="351.3" y2="479.912" gradientUnits="userSpaceOnUse">
<stop stop-color="#FC5050"/>
<stop offset="0.56" stop-color="#7E4CA8"/>
<stop offset="1" stop-color="#0048FF"/>
</linearGradient>
<linearGradient id="paint5_linear_3_82320" x1="-166.042" y1="279.412" x2="351.3" y2="479.912" gradientUnits="userSpaceOnUse">
<stop stop-color="#FC5050"/>
<stop offset="0.56" stop-color="#7E4CA8"/>
<stop offset="1" stop-color="#0048FF"/>
</linearGradient>
<linearGradient id="paint6_linear_3_82320" x1="-166.042" y1="279.412" x2="351.3" y2="479.912" gradientUnits="userSpaceOnUse">
<stop stop-color="#FC5050"/>
<stop offset="0.56" stop-color="#7E4CA8"/>
<stop offset="1" stop-color="#0048FF"/>
</linearGradient>
<linearGradient id="paint7_linear_3_82320" x1="-166.042" y1="279.412" x2="351.3" y2="479.912" gradientUnits="userSpaceOnUse">
<stop stop-color="#FC5050"/>
<stop offset="0.56" stop-color="#7E4CA8"/>
<stop offset="1" stop-color="#0048FF"/>
</linearGradient>
<linearGradient id="paint8_linear_3_82320" x1="-166.042" y1="279.412" x2="351.3" y2="479.912" gradientUnits="userSpaceOnUse">
<stop stop-color="#FC5050"/>
<stop offset="0.56" stop-color="#7E4CA8"/>
<stop offset="1" stop-color="#0048FF"/>
</linearGradient>
<linearGradient id="paint9_linear_3_82320" x1="-166.042" y1="279.412" x2="351.3" y2="479.912" gradientUnits="userSpaceOnUse">
<stop stop-color="#FC5050"/>
<stop offset="0.56" stop-color="#7E4CA8"/>
<stop offset="1" stop-color="#0048FF"/>
</linearGradient>
<linearGradient id="paint10_linear_3_82320" x1="-166.042" y1="279.412" x2="351.3" y2="479.912" gradientUnits="userSpaceOnUse">
<stop stop-color="#FC5050"/>
<stop offset="0.56" stop-color="#7E4CA8"/>
<stop offset="1" stop-color="#0048FF"/>
</linearGradient>
<linearGradient id="paint11_linear_3_82320" x1="-166.042" y1="279.412" x2="351.3" y2="479.912" gradientUnits="userSpaceOnUse">
<stop stop-color="#FC5050"/>
<stop offset="0.56" stop-color="#7E4CA8"/>
<stop offset="1" stop-color="#0048FF"/>
</linearGradient>
<linearGradient id="paint12_linear_3_82320" x1="-166.042" y1="279.412" x2="351.3" y2="479.912" gradientUnits="userSpaceOnUse">
<stop stop-color="#FC5050"/>
<stop offset="0.56" stop-color="#7E4CA8"/>
<stop offset="1" stop-color="#0048FF"/>
</linearGradient>
</defs>
</svg>
