<svg width="554" height="473" viewBox="0 0 554 473" fill="none" xmlns="http://www.w3.org/2000/svg">
<mask id="mask0_3_82342" style="mask-type:alpha" maskUnits="userSpaceOnUse" x="0" y="-348" width="898" height="821">
<path fill-rule="evenodd" clip-rule="evenodd" d="M394.601 54.3223L394.213 53.8865L394.428 57.2001C394.437 57.737 394.572 58.2403 394.741 58.8693C396.051 63.7475 401.132 65.7516 405.796 67.5913L405.876 67.623C410.848 69.5299 415.374 71.2862 416.624 75.9409C416.725 76.3183 416.861 76.8215 416.836 77.2326C416.845 77.7695 417.014 78.3986 417.149 78.9019C418.061 82.2985 420.763 84.8121 424.069 85.5464C425.373 85.872 426.895 86.0045 428.257 86.0448C438.322 85.7811 450.573 78.0565 451.453 68.2481C451.727 65.7477 451.43 63.1306 450.754 60.6145C449.605 56.3372 447.254 52.1117 443.869 48.567C437.488 41.9134 428.494 38.1153 419.345 38.2688C412.888 38.3772 403.44 41.4423 398.342 47.1196C396.318 49.1439 395.094 51.6287 394.601 54.3223ZM440.098 52.1371C442.742 54.936 444.73 58.3146 445.744 62.0886C446.251 63.9756 446.379 65.9638 446.222 67.8936C445.666 74.3793 435.642 80.8344 428.234 80.9272C424.879 81.015 422.835 79.9437 422.193 77.5535C422.125 77.3019 422.058 77.0503 422.082 76.6391C422.006 75.8506 421.837 75.2216 421.634 74.4667C419.742 67.4218 413.079 64.7536 407.661 62.6962L407.616 62.6787C403.715 61.1725 400.424 59.9015 399.751 57.3951L399.582 56.7661C399.512 54.4926 400.358 52.109 402.071 50.4374C406.237 45.8182 414.079 43.3172 419.335 43.2606C427.189 43.3183 434.685 46.5729 440.098 52.1371Z" fill="url(#paint0_linear_3_82342)"/>
<path fill-rule="evenodd" clip-rule="evenodd" d="M376.594 79.3614C370.097 75.3002 365.339 69.1564 363.219 61.7678C362.037 57.3647 361.897 52.8178 362.741 48.4123L363.209 46.1299C365.719 35.3463 373.022 25.3037 383.818 17.6984C394.052 10.5131 406.803 6.16049 418.104 5.9708C426.084 5.99481 434.233 6.64786 442.105 7.77945C443.072 7.85797 444.016 7.97644 444.96 8.09485C445.904 8.21326 446.848 8.3317 447.815 8.41025C458.412 9.62247 467.879 15.1818 475.13 24.5693C479.854 30.5873 483.564 38.36 485.827 46.7887C488.361 56.2239 489.096 66.0052 487.762 75.1262C486.27 86.1769 479.581 96.999 469.055 105.611C459.873 113.189 448.586 117.959 439.908 117.852C438.007 117.821 436.165 117.504 434.29 117.062C428.755 115.575 424.168 112.082 421.11 107.237C415.811 99.0802 406.968 94.8373 396.628 90.0508C389.737 87.0388 382.964 83.4563 376.594 79.3614ZM451.876 14.471C450.286 14.0869 448.696 13.703 447.174 13.5706C446.497 13.4991 445.798 13.4148 445.086 13.329C443.897 13.1856 442.674 13.0381 441.464 12.9398C433.752 11.9003 425.889 11.3057 418.161 11.2142C397.425 11.499 371.662 27.2853 367.854 49.3374C367.128 53.1723 367.317 56.897 368.263 60.4194C369.851 66.3321 373.607 71.2607 379.372 75.1129C385.549 78.9899 392.036 82.5142 398.767 85.4341C409.872 90.5552 419.481 95.1328 425.53 104.572C428.655 109.669 433.931 112.708 439.885 112.735C454.609 112.709 479.538 96.3362 482.589 74.4864C483.739 65.6844 483.149 56.9432 480.851 48.3887L480.615 47.5081C478.689 40.3374 475.41 33.6632 470.971 27.7036C466.271 21.2744 459.48 16.618 451.876 14.471Z" fill="url(#paint1_linear_3_82342)"/>
<path fill-rule="evenodd" clip-rule="evenodd" d="M464.284 -23.3637C458.389 -23.6754 452.174 -24.1714 446.624 -24.7101C436.759 -25.7134 426.869 -26.3057 417.023 -26.2352C399.55 -25.8788 380.537 -19.178 364.582 -7.63177C347.721 4.56152 335.934 21.061 331.423 38.9864L331.097 40.2871C328.963 48.9476 328.991 58.1089 331.162 66.6971C333.899 76.8871 340.225 85.8479 348.91 92.0206C362.628 101.837 376.191 108.054 388.348 113.568L388.685 113.721C403.474 120.45 416.116 126.201 425.442 136.956C430.385 142.78 436.949 147.093 444.394 149.148C447.733 150.008 451.097 150.457 454.544 150.21C467.199 149.524 483.343 141.702 496.665 129.916C511.827 116.424 521.737 99.4823 524.298 82.3478C526.483 67.3364 525.91 52.1185 522.462 37.2649C522.28 36.588 522.128 35.903 521.973 35.2032C521.811 34.4723 521.646 33.7251 521.439 32.9538C517.756 19.2414 511.788 7.08377 504.159 -2.20267C493.329 -15.3529 479.622 -22.6102 464.284 -23.3637ZM416.953 -20.9581C426.674 -20.9949 436.404 -20.4948 446.016 -19.424C451.979 -18.8606 458.067 -18.331 463.928 -18.145C467.225 -17.9476 470.463 -17.4649 473.642 -16.6968C483.375 -14.1748 491.958 -8.37952 499.259 0.185823L499.84 0.839509C506.889 9.47226 512.562 21.0346 516.109 34.2438C520.265 49.7175 521.133 65.5307 518.865 81.2385C516.412 97.2654 507.24 112.931 492.985 125.776C480.571 136.915 465.62 144.148 454.042 144.816C444.868 145.381 436.059 141.264 429.214 133.386C419.102 121.747 405.955 115.716 390.657 108.699L390.386 108.574C378.548 103.244 365.271 97.0852 351.907 87.579C344.055 81.9926 338.571 74.155 336.139 65.0972C334.145 57.6749 334.169 49.7133 336.085 41.246C344.886 3.56659 384.916 -20.4836 416.953 -20.9581Z" fill="url(#paint2_linear_3_82342)"/>
<path fill-rule="evenodd" clip-rule="evenodd" d="M298.786 71.4424C295.668 59.3317 295.82 45.8076 299.42 32.0362C305.932 6.96896 322.167 -16.1132 345.027 -33.146C366.358 -48.8263 392.137 -58.01 415.529 -58.4658C427.781 -58.6398 440.176 -57.7737 452.194 -56.8065C461.167 -56.1041 471.216 -55.4198 480.592 -55.2296C500.673 -54.9348 518.78 -45.8874 532.868 -29.1588C543.208 -16.8218 551.469 -0.15335 556.571 18.8428C562.619 41.3614 564.019 66.201 560.38 88.8822C556.75 112.1 543.744 135.128 523.854 153.659C506.585 169.871 485.425 180.652 468.794 182.132C463.766 182.532 458.753 181.984 453.824 180.74C444.47 178.117 436.055 172.951 429.32 165.987C416.065 152.736 399.419 145.345 380.173 136.799L379.082 136.314C361.495 128.497 341.595 119.651 321.159 104.428C310.386 96.5215 302.435 85.029 298.955 72.0714L298.786 71.4424ZM551.813 20.2495C546.914 2.00821 538.982 -13.9391 529.063 -25.7146L528.254 -26.7119C518.983 -37.5821 507.875 -44.725 495.501 -48.0241C490.698 -49.3019 485.778 -50.0092 480.775 -50.02C471.273 -50.1764 461.476 -50.9282 452.091 -51.6552C440.073 -52.6225 427.93 -53.556 415.838 -53.2899C372.946 -52.4752 318.093 -19.204 304.475 33.2466C300.993 46.4474 300.822 58.8976 303.829 70.0941C307.107 82.2968 314.216 92.6662 324.349 100.205C344.568 115.246 364.461 124.067 382.072 131.876L382.198 131.932L383.141 132.353C402.557 141.034 419.396 148.563 433.091 162.417C443.464 172.858 455.932 178.02 468.359 176.99C483.947 175.654 503.846 165.21 520.402 149.863C539.544 132.071 551.904 110.16 555.426 88.0491C558.939 65.4017 557.793 42.5165 551.813 20.2495Z" fill="url(#paint3_linear_3_82342)"/>
<path fill-rule="evenodd" clip-rule="evenodd" d="M497.507 -86.8532C484.809 -86.8297 471.589 -87.7451 458.748 -88.7617C457.61 -88.8396 456.469 -88.9184 455.326 -88.9974C441.947 -89.9218 428.236 -90.8692 414.734 -90.6135C385.295 -90.0247 353.036 -78.2996 326.202 -58.4515C297.335 -37.1161 276.676 -7.86243 267.902 23.8771C263.398 40.3176 262.501 56.6026 265.47 71.18L265.436 71.0542L266.154 74.2329L266.931 77.1264C271.189 92.9775 280.766 107.002 293.82 116.861C321.233 137.706 347.901 149.362 371.465 159.662L372.158 159.965C396.018 170.305 416.529 179.249 433.517 195.203C441.919 203.339 452.345 209.451 463.734 212.608C470.161 214.396 476.788 214.917 483.363 214.238C504.004 212.09 530.113 198.099 551.523 177.679C576.174 154.234 592.276 125.12 597.101 95.7847C601.424 68.6059 600.517 41.0727 594.649 14.1913C593.93 11.0126 593.178 7.70801 592.333 4.56293C585.88 -19.4653 575.554 -40.3008 562.376 -55.6546C544.71 -76.1459 522.363 -86.8913 497.507 -86.8532ZM497.563 -81.6098C504.307 -81.6599 511.035 -80.7618 517.554 -79.1336C532.821 -75.1249 546.622 -66.0052 558.285 -52.2688C571.076 -37.3508 581.14 -16.9847 587.425 6.41452C595.103 35.5085 596.619 65.3062 591.895 95.019C587.338 123.339 571.63 151.404 547.852 174.076C527.19 193.757 502.274 207.159 482.801 209.129C467.155 210.75 450.994 204.419 437.095 191.415C419.68 175.197 399.06 166.128 375.274 155.667L374.263 155.222C350.849 145.031 324.213 133.41 296.918 112.796C284.537 103.432 275.894 90.3711 271.772 75.0233C267.718 59.927 268.093 42.7029 272.991 25.2134C291.762 -42.7724 359.899 -84.4489 414.917 -85.4039C429.447 -85.6477 444.315 -84.6336 458.645 -83.6104C471.36 -82.5601 484.58 -81.6447 497.563 -81.6098Z" fill="url(#paint4_linear_3_82342)"/>
<path fill-rule="evenodd" clip-rule="evenodd" d="M232.908 76.244C228.984 57.6073 230.153 36.7999 236.166 15.9113C247.169 -22.6264 272.252 -58.0517 307 -83.656C339.337 -107.672 378.236 -121.846 413.72 -122.568C430.243 -122.875 446.904 -121.752 463.078 -120.662C463.885 -120.607 464.691 -120.553 465.496 -120.499C466.061 -120.461 466.626 -120.422 467.191 -120.384C467.83 -120.341 468.469 -120.297 469.108 -120.254L469.125 -120.252C484.079 -119.234 499.36 -118.192 514.295 -118.443C529.237 -118.662 544.175 -115.375 557.553 -108.838C570.679 -102.235 582.041 -93.1374 591.54 -81.9236C607.463 -63.3934 620.014 -38.2986 627.819 -9.23834C628.9 -5.21268 629.981 -1.18701 630.844 3.03186C637.829 36.0865 638.744 69.6854 633.478 102.914C627.618 138.459 608.261 173.567 578.881 202.051C553.49 226.771 522.398 243.848 497.747 246.662C489.625 247.62 481.476 246.967 473.46 244.795C460.961 241.53 448.558 234.598 437.53 224.737C416.954 206.312 392.61 195.862 364.462 183.779L364.198 183.666C334.567 170.958 300.948 156.484 266.204 129.771C250.743 117.994 239.506 101.312 234.505 82.6936L234.201 81.5614C234.016 80.8695 233.87 80.2006 233.724 79.5317C233.578 78.8629 233.432 78.194 233.246 77.5021L232.908 76.244ZM628.364 101.989C634.173 65.2444 632.253 28.4084 622.717 -7.6047C614.98 -36.4134 602.85 -60.9466 587.609 -78.4456C573.53 -94.6373 557.296 -105.264 539.228 -110.142C531.086 -112.28 522.71 -113.277 514.225 -113.166C499.256 -113.002 483.973 -114.004 469.009 -114.985L468.975 -114.988C467.652 -115.074 466.332 -115.161 465.014 -115.247C464.266 -115.299 463.517 -115.351 462.767 -115.404C446.666 -116.529 430.078 -117.689 413.777 -117.325C347.492 -116.054 264.785 -65.2242 241.322 17.4991C234.984 39.6885 234.303 61.3091 239.405 80.3052C244.338 98.6723 254.767 114.357 269.428 125.673C303.785 151.95 336.958 166.273 366.269 178.797C394.975 191.079 419.726 201.721 441.04 220.698C458.465 236.264 478.411 243.607 497.152 241.428C542.091 236.156 615.608 179.288 628.364 101.989Z" fill="url(#paint5_linear_3_82342)"/>
<path fill-rule="evenodd" clip-rule="evenodd" d="M204.648 7.75269C211.624 -16.0902 222.554 -38.2935 237.195 -58.2528C265.394 -96.6684 303.948 -125.717 348.663 -142.39C369.179 -150.032 390.734 -154.311 412.605 -154.9C432.265 -155.166 452.33 -153.924 471.604 -152.604L471.73 -152.638C491.165 -151.227 511.39 -149.892 530.855 -150.376C548.169 -150.825 565.647 -147.138 581.195 -139.564C596.492 -131.922 609.748 -121.309 620.796 -108.352C639.557 -86.8046 654.207 -57.4169 663.363 -23.3245C664.68 -18.4182 665.906 -13.3524 667.005 -8.25296C675.166 30.6897 676.248 70.4463 669.913 109.759C662.858 151.421 640.313 192.775 606.297 226.138C591.968 240.216 575.897 252.333 558.427 262.262C542.175 271.191 526.155 276.957 512.156 278.677C502.327 279.821 492.53 279.069 483.05 276.48C468.641 272.646 454.707 265.045 441.534 253.735C417.243 233.06 389.098 221.064 356.542 207.187L355.234 206.629C319.933 191.575 280.07 174.574 238.613 142.271C220.905 128.668 208.041 109.454 202.264 87.9424L201.858 86.4327C201.318 84.4199 200.811 82.5328 200.396 80.4863L200.117 78.943C195.819 56.9005 197.337 32.3594 204.648 7.75269ZM471.249 -147.385C451.974 -148.705 432.161 -150.015 412.662 -149.656C335.201 -148.23 238.051 -88.2799 209.393 9.31586C201.453 36.113 200.535 62.3816 206.65 85.1518C212.427 106.664 224.516 125.006 241.551 138.115C282.785 170.143 322.662 187.097 357.847 202.056L358.082 202.155C389.942 215.616 419.859 228.383 444.792 249.763C465.835 267.733 489.474 276.246 511.435 273.476C538.894 270.045 573.776 250.473 602.559 222.284C635.827 189.659 657.852 149.388 664.64 108.741C671.693 65.0573 669.496 21.1492 658.134 -21.6572C649.046 -55.498 634.817 -84.324 616.797 -105.125L616.023 -105.997C600.041 -124.242 581.409 -136.25 560.734 -141.779C551.002 -144.301 540.943 -145.522 530.878 -145.259C511.286 -144.74 490.935 -146.042 471.375 -147.419L471.249 -147.385Z" fill="url(#paint6_linear_3_82342)"/>
<path fill-rule="evenodd" clip-rule="evenodd" d="M547.576 -182.218C567.294 -182.77 587.06 -178.615 604.872 -170.163C621.438 -162.322 636.647 -150.477 650.271 -134.973C671.743 -110.376 688.652 -76.6029 699.159 -37.4785C700.713 -31.6916 702.209 -25.6193 703.419 -19.6055C712.78 24.8141 714.007 73.1613 706.634 116.661C698.544 164.533 672.777 212.006 634 250.284C617.807 266.478 599.391 280.435 579.476 291.826C560.939 302.31 542.683 308.809 526.759 310.908C515.383 312.331 504.064 311.447 492.995 308.474C489.781 307.58 486.534 306.56 483.22 305.289C469.482 299.928 456.91 292.367 445.698 282.825C417.694 259.569 384.142 245.347 348.488 230.339L347.666 229.992C306.409 212.577 259.794 192.9 211.182 154.863C191.226 139.434 176.543 117.47 170.022 93.1907L169.583 91.5553C168.874 88.9135 168.256 86.1121 167.673 83.4365L167.538 82.9333C162.546 57.301 164.437 28.6151 173.038 -0.246704C181.129 -27.4887 193.871 -53.008 210.678 -75.9734C243.024 -120.082 287.173 -153.458 338.368 -172.672C361.775 -181.627 386.424 -186.463 411.524 -187.106C433.84 -187.543 456.538 -186.06 478.411 -184.627C501.268 -183.052 524.789 -181.519 547.576 -182.218ZM582.467 -173.073C571.145 -175.979 559.438 -177.299 547.759 -177.008C524.686 -176.368 500.912 -177.833 478.089 -179.282C456.216 -180.716 433.679 -182.107 411.614 -181.736C323.013 -180.028 211.384 -111.084 178.035 1.24902C168.621 32.6202 167.43 63.4111 174.593 90.0811C181.181 114.613 194.93 135.612 214.246 150.673C262.541 188.595 309.167 208.221 350.307 225.538L351.172 225.903C386.826 240.96 420.474 255.169 448.83 278.887C473.4 299.42 500.824 308.943 525.878 305.616C557.381 301.643 597.245 278.986 630.135 246.463C668.165 208.925 693.378 162.408 701.235 115.678C709.532 65.054 707.058 14.074 693.872 -35.5257C683.399 -74.5244 666.911 -107.736 646.18 -131.587L645.405 -132.459C627.133 -153.193 605.91 -166.8 582.467 -173.073Z" fill="url(#paint7_linear_3_82342)"/>
<path fill-rule="evenodd" clip-rule="evenodd" d="M485.251 -216.523L485.125 -216.49C460.653 -218.038 435.357 -219.635 410.476 -219.186C383.602 -218.608 355.86 -213.214 328.072 -202.954C299.941 -192.467 273.554 -177.998 249.476 -159.965C224.491 -141.285 202.478 -119.086 184.126 -93.8196C165.154 -67.8483 150.691 -39.1724 141.395 -8.37189C131.645 23.7632 129.304 55.8054 134.602 84.5919L134.983 86.5126C135.677 90.1025 136.497 93.6587 137.409 97.0553C145.112 125.738 160.647 149.361 183.591 167.363C239.461 211.349 293.069 233.828 340.392 253.537L340.552 253.604C380.388 270.286 418.087 286.072 449.609 311.982C462.328 322.605 476.624 331.053 492.112 336.89C495.553 338.128 499.119 339.332 502.585 340.158C515.152 343.675 528.212 344.498 541.134 342.797C559.017 340.443 579.441 332.96 600.205 321.207C622.566 308.353 643.165 292.464 661.382 274.245C704.888 230.928 733.91 177.461 742.91 123.413C751.259 73.9894 750.05 19.1654 739.386 -31.1085C737.94 -38.0029 736.208 -44.9557 734.417 -51.6233C722.524 -95.9056 703.424 -133.812 679.367 -161.494C664.32 -178.775 647.251 -192.01 628.674 -200.796C608.691 -210.286 586.386 -214.84 564.33 -213.933C538.959 -213.047 512.766 -214.742 487.453 -216.381L485.251 -216.523ZM675.436 -158.016C698.878 -131.113 717.591 -93.643 729.45 -49.4864C744.368 7.06613 747.212 64.9587 737.704 122.648C728.812 175.588 700.344 228.098 657.585 270.676C620.681 307.373 575.708 333.149 540.355 337.881C504.118 342.849 472.807 324.388 452.901 308.136C420.972 281.951 383.349 266.149 343.561 249.44L342.405 248.954C295.368 229.303 242.206 206.975 186.722 163.424C164.999 146.445 149.591 122.788 142.158 95.1117C133.948 64.5417 135.444 29.3544 146.299 -6.71661C184.684 -134.014 310.756 -212.078 410.533 -213.942C435.128 -214.45 460.424 -212.853 484.769 -211.271L484.895 -211.305L487.151 -211.162C512.573 -209.557 538.873 -207.897 564.353 -208.816C577.74 -209.293 591.095 -207.874 604.04 -204.458C630.376 -197.476 654.099 -182.11 674.695 -158.761L675.436 -158.016Z" fill="url(#paint8_linear_3_82342)"/>
<path fill-rule="evenodd" clip-rule="evenodd" d="M491.839 -248.353L491.553 -248.411C464.609 -250.107 436.715 -251.819 409.395 -251.392C379.418 -250.794 348.616 -244.717 317.617 -233.329C286.309 -221.588 256.973 -205.521 230.366 -185.329C202.566 -164.549 178.16 -139.686 157.701 -111.7C136.529 -82.8482 120.414 -50.7643 109.877 -16.531C98.8039 19.7333 96.0893 55.9204 102.082 88.2967L102.259 89.4627C103.088 93.5558 103.951 97.7746 105.032 101.8L105.168 102.304C108.58 115.01 113.631 127.277 120.221 138.73C129.515 154.717 141.624 168.604 156.159 179.955C219.015 229.543 279.341 254.656 332.548 276.804L332.743 276.886C376.878 295.29 418.59 312.724 453.773 341.072C467.998 352.775 483.859 362.018 501.164 368.583C504.891 369.879 508.618 371.175 512.369 372.06C526.526 375.961 541.108 376.917 555.737 375.028C575.545 372.295 598.171 363.954 621.128 350.805C645.9 336.362 668.717 318.667 688.925 298.298C737.192 250.068 769.276 190.389 779.505 130.35C788.865 75.1272 787.547 13.8603 775.673 -42.4275C773.957 -50.3283 772.148 -58.0697 770.121 -65.6178C756.877 -114.932 735.644 -157.257 708.749 -187.956C691.993 -207.072 673.064 -221.698 652.476 -231.43C630.357 -241.832 605.637 -246.819 581.177 -245.808C551.621 -244.649 521.255 -246.509 491.839 -248.353ZM704.658 -184.57C730.938 -154.651 751.784 -112.762 765.028 -63.4472C781.77 -0.101317 784.892 64.8632 774.265 129.458C764.304 188.482 732.614 247.112 685.094 294.603C644.083 335.635 594.253 364.462 554.89 369.861C514.643 375.497 479.436 355.11 456.997 336.974C421.141 308.132 379.109 290.514 334.528 271.959L334.301 271.864C281.548 249.869 221.679 224.907 159.35 175.731C135.345 156.799 118.185 130.645 109.907 99.823C100.684 65.479 102.418 25.6436 114.874 -15.0352C157.983 -156.945 298.533 -244.003 409.452 -246.149C436.738 -246.701 464.506 -244.956 491.609 -243.168L492.729 -243.098C521.8 -241.275 551.929 -239.385 581.268 -240.439C596.361 -241.103 611.398 -239.46 625.966 -235.534C655.196 -227.843 681.705 -210.659 704.658 -184.57Z" fill="url(#paint9_linear_3_82342)"/>
<path fill-rule="evenodd" clip-rule="evenodd" d="M307.322 -263.611C272.803 -250.742 240.551 -232.952 211.256 -210.693C180.676 -187.686 153.682 -160.379 131.15 -129.546C107.812 -97.6885 90.0108 -62.3223 78.267 -24.5304C65.8703 15.8631 62.7823 56.1951 69.3423 92.195L69.4437 92.5724C70.3493 97.4539 71.5071 102.268 72.7234 106.797L72.8585 107.3C76.575 121.138 82.023 134.379 89.1348 146.77C99.2803 164.418 112.585 179.738 128.534 192.328C198.589 247.655 265.433 275.469 324.557 300.072L324.954 300.237C373.275 320.316 418.854 339.257 457.777 370.07C474.661 383.623 492.214 393.628 510.149 400.025C514.036 401.413 518.014 402.641 521.96 403.744C537.706 408.029 553.936 409.083 570.112 406.916C591.845 403.803 616.674 394.604 641.95 380.026C669.167 364.121 694.202 344.619 716.4 322.1C741.126 297.422 762.282 269.518 779.249 239.095C797.331 207.294 809.575 172.874 815.999 136.909C826.185 76.2068 824.724 8.37106 811.675 -53.8047C809.848 -62.6199 807.769 -71.3677 805.505 -79.7964C790.909 -134.143 767.452 -180.727 737.846 -214.476C719.38 -235.428 698.591 -251.444 676.026 -261.996C651.61 -273.402 624.51 -278.697 597.679 -277.456C565.055 -276.151 531.232 -278.3 498.645 -280.375L497.198 -280.464C468.102 -282.248 437.958 -284.095 408.314 -283.598C375.268 -282.854 341.371 -276.219 307.322 -263.611ZM800.572 -77.5337C819.172 -7.26871 822.538 64.642 810.7 136.302C799.578 201.569 764.793 266.286 712.511 318.69C667.485 363.896 612.547 395.842 569.207 402.035C553.695 404.159 538.163 403.188 523.114 398.986C502.153 393.398 481.227 382.408 460.908 366.131C421.465 334.91 375.555 315.784 326.904 295.516L326.583 295.382C267.767 270.959 201.227 243.329 131.792 188.356C105.38 167.506 86.6866 138.66 77.5981 104.82C67.3271 66.5759 69.2417 22.3777 83.2635 -23.0346C133.118 -185.624 288.051 -275.988 408.37 -278.355C436.801 -278.892 465.845 -277.147 494.177 -275.445C495.592 -275.36 497.005 -275.275 498.416 -275.19L499.494 -275.123C531.871 -273.102 565.313 -271.014 597.828 -272.373C614.536 -273.064 631.221 -271.322 647.506 -267.046C679.663 -258.519 708.797 -239.61 733.881 -211.124C762.906 -178.029 785.976 -131.88 800.572 -77.5337Z" fill="url(#paint10_linear_3_82342)"/>
<path fill-rule="evenodd" clip-rule="evenodd" d="M852.249 144.072C845.828 182.059 832.276 219.66 812.24 255.759C793.612 289.054 770.6 319.611 743.631 346.506C718.662 371.788 690.595 393.584 662.529 409.851C635.059 425.824 608.062 436.008 584.37 439.375C566.648 441.821 548.895 440.634 531.525 435.839C527.454 434.77 523.155 433.358 518.983 431.911C499.55 424.971 480.239 413.953 461.722 399.353C419.283 365.984 369.476 345.348 316.927 323.575L315.498 322.981C250.846 296.114 177.573 265.664 100.977 204.954C83.4869 191.158 68.953 174.279 57.9563 154.971C50.4481 141.607 44.536 127.142 40.5493 112.297L40.3803 111.668C38.9613 106.385 37.7607 100.908 36.6862 95.3971L36.6524 95.2712C29.4323 55.8073 32.8354 11.6157 46.5894 -32.7812C59.4138 -74.098 78.9348 -112.621 104.439 -147.484C129.137 -181.324 158.557 -211.167 191.952 -236.274C223.936 -260.6 259.263 -280.022 296.834 -294.111C333.967 -307.813 371.05 -315.165 407.072 -315.896C439.74 -316.539 472.991 -314.506 505.165 -312.456C541.049 -310.183 578.168 -307.836 614.24 -309.39C643.476 -310.733 672.989 -305.005 699.542 -292.687C724.118 -281.19 746.893 -263.817 766.942 -240.996C799.385 -204.23 824.942 -153.353 840.923 -93.849C843.457 -84.4138 845.773 -74.7855 847.836 -65.0897C862.187 2.94043 863.63 77.2529 852.249 144.072ZM505.13 -307.053L505.044 -308.378L505.004 -307.019L502.037 -307.197C470.827 -309.069 438.742 -310.993 407.323 -310.435C252.848 -307.431 99.9344 -187.405 51.5275 -31.0001C35.905 19.02 33.7184 67.7404 45.0368 109.884C54.9362 146.744 75.4157 178.214 104.109 201.016C180.433 261.515 253.481 291.814 317.962 318.561L318.599 318.825L319.049 319.011L319.049 319.011L319.051 319.012L319.052 319.012C371.945 340.894 421.941 361.576 464.853 395.414C487.124 412.922 509.935 424.892 532.772 430.922C549.41 435.508 566.591 436.578 583.649 434.175C631.664 427.271 690.081 393.182 739.961 342.903C796.971 285.459 834.978 214.623 847.169 143.273C860.162 66.8541 856.286 -16.5161 836.183 -91.3684C820.202 -150.873 794.873 -201.406 763.171 -237.426L762.784 -237.862C735.603 -268.619 704.071 -288.909 669.272 -298.213C651.398 -302.873 633.031 -304.84 614.617 -303.962C578.385 -302.501 541.139 -304.814 505.13 -307.053Z" fill="url(#paint11_linear_3_82342)"/>
<path fill-rule="evenodd" clip-rule="evenodd" d="M683.326 439.483C713.711 421.787 744.088 398.025 771.082 370.719C800.225 341.354 825.126 308.27 845.323 272.263C867.114 233.134 881.687 192.293 888.718 151.042C901.202 78.265 899.524 -2.45672 884.123 -76.4085C881.916 -87.1445 879.364 -97.6535 876.627 -107.843C859.295 -172.38 831.479 -227.642 796.325 -267.458C774.6 -291.989 750.091 -310.785 723.378 -323.195C694.562 -336.391 662.635 -342.553 631.028 -340.98C591.761 -339.246 551.219 -341.757 512.039 -344.227L509.114 -344.402C475.4 -346.423 440.425 -348.52 406.185 -347.884C367.185 -347.166 326.917 -339.098 286.606 -324.142C245.825 -308.925 207.581 -287.779 172.91 -261.387C136.734 -234.052 104.761 -201.639 77.9553 -165.079C50.2852 -127.21 29.0778 -85.4045 15.0131 -40.6549C-0.00601953 7.58591 -3.85005 55.6707 3.904 98.6325C5.0214 104.806 6.39093 110.912 7.97888 116.824L8.14781 117.453C12.4387 133.43 18.747 148.868 26.8453 163.422C38.727 184.516 54.423 202.703 73.4533 217.705C157.605 284.469 237.865 317.621 308.845 346.916C365.826 370.381 419.653 392.666 465.793 428.602C486.102 444.341 506.979 456.154 528.035 463.604C532.367 465.143 536.918 466.488 541.309 467.741C560.143 472.954 579.544 474.239 598.939 471.481C624.43 467.768 653.629 456.726 683.326 439.483ZM598.092 466.314C579.453 468.87 560.784 467.793 542.522 462.698C517.776 456.099 493.114 443.276 468.857 424.412C422.17 387.948 368.057 365.604 310.756 341.956L310.335 341.781C239.903 312.679 160.115 279.711 76.6436 213.482L75.9365 212.862C45.2821 188.292 23.4625 154.349 12.8198 114.721C0.487848 68.8035 2.94664 15.5608 20.0097 -39.1591C72.8154 -208.875 238.885 -339.295 406.241 -342.641C439.913 -343.357 474.331 -341.291 507.656 -339.291L511.81 -339.042C551.116 -336.605 591.658 -334.095 631.211 -335.77C693.61 -338.428 747.943 -314.256 792.393 -263.981C826.933 -224.943 854.361 -170.117 871.761 -105.329C893.655 -23.8094 897.875 66.8844 883.604 150.117C870.344 227.551 829.149 304.633 767.377 366.99C713.391 421.603 650.117 458.743 598.092 466.314Z" fill="url(#paint12_linear_3_82342)"/>
</mask>
<g mask="url(#mask0_3_82342)">
<g filter="url(#filter0_f_3_82342)">
<ellipse cx="258.967" cy="126.444" rx="326.531" ry="325.781" fill="#06B622" fill-opacity="0.4"/>
<ellipse cx="563.019" cy="147.732" rx="79.6325" ry="79.4495" fill="#06B622" fill-opacity="0.4"/>
<ellipse cx="444.142" cy="-2.8035" rx="123.83" ry="123.546" fill="#06B622" fill-opacity="0.4"/>
<ellipse cx="273.446" cy="142.41" rx="79.6325" ry="79.4495" fill="#06B622" fill-opacity="0.4"/>
<ellipse cx="392.323" cy="76.2656" rx="79.6325" ry="79.4495" fill="#06B622" fill-opacity="0.4"/>
<ellipse cx="456.334" cy="156.095" rx="79.6325" ry="79.4495" fill="#06B622" fill-opacity="0.4"/>
<ellipse cx="358.794" cy="205.514" rx="79.6325" ry="79.4495" fill="#06B622" fill-opacity="0.4"/>
<ellipse cx="580.546" cy="25.3268" rx="79.6325" ry="79.4495" fill="#06B622" fill-opacity="0.4"/>
<ellipse cx="311.548" cy="13.9225" rx="79.6325" ry="79.4495" fill="#06B622" fill-opacity="0.4"/>
<ellipse cx="188.479" cy="30.2686" rx="84.5857" ry="84.3913" fill="#06B622" fill-opacity="0.4"/>
<ellipse cx="500.913" cy="275.079" rx="84.5857" ry="84.3913" fill="#06B622" fill-opacity="0.4"/>
<ellipse cx="591.596" cy="402.047" rx="84.5857" ry="84.3913" fill="#06B622" fill-opacity="0.4"/>
<ellipse cx="475.765" cy="402.047" rx="84.5857" ry="84.3913" fill="#06B622" fill-opacity="0.4"/>
<ellipse cx="634.269" cy="-54.1227" rx="84.5857" ry="84.3913" fill="#06B622" fill-opacity="0.4"/>
<ellipse cx="209.817" cy="288.004" rx="113.543" ry="113.282" fill="#06B622" fill-opacity="0.4"/>
<ellipse cx="18.5459" cy="-9.26605" rx="113.543" ry="113.282" fill="#06B622" fill-opacity="0.4"/>
<ellipse cx="634.269" cy="272.038" rx="84.5857" ry="84.3913" fill="#06B622" fill-opacity="0.4"/>
<ellipse cx="45.9793" cy="-20.6703" rx="118.877" ry="118.604" fill="#06B622" fill-opacity="0.4"/>
</g>
</g>
<defs>
<filter id="filter0_f_3_82342" x="-294.997" y="-399.337" width="1255" height="1085.77" filterUnits="userSpaceOnUse" color-interpolation-filters="sRGB">
<feFlood flood-opacity="0" result="BackgroundImageFix"/>
<feBlend mode="normal" in="SourceGraphic" in2="BackgroundImageFix" result="shape"/>
<feGaussianBlur stdDeviation="100" result="effect1_foregroundBlur_3_82342"/>
</filter>
<linearGradient id="paint0_linear_3_82342" x1="681.006" y1="119.805" x2="215.321" y2="-7.25493" gradientUnits="userSpaceOnUse">
<stop stop-color="#E9B49F"/>
<stop offset="0.091" stop-color="#E9B49F"/>
<stop offset="0.435" stop-color="#BC457F"/>
<stop offset="1" stop-color="#6F3FBF"/>
</linearGradient>
<linearGradient id="paint1_linear_3_82342" x1="681.006" y1="119.805" x2="215.321" y2="-7.25493" gradientUnits="userSpaceOnUse">
<stop stop-color="#E9B49F"/>
<stop offset="0.091" stop-color="#E9B49F"/>
<stop offset="0.435" stop-color="#BC457F"/>
<stop offset="1" stop-color="#6F3FBF"/>
</linearGradient>
<linearGradient id="paint2_linear_3_82342" x1="681.006" y1="119.805" x2="215.321" y2="-7.25493" gradientUnits="userSpaceOnUse">
<stop stop-color="#E9B49F"/>
<stop offset="0.091" stop-color="#E9B49F"/>
<stop offset="0.435" stop-color="#BC457F"/>
<stop offset="1" stop-color="#6F3FBF"/>
</linearGradient>
<linearGradient id="paint3_linear_3_82342" x1="681.006" y1="119.805" x2="215.321" y2="-7.25493" gradientUnits="userSpaceOnUse">
<stop stop-color="#E9B49F"/>
<stop offset="0.091" stop-color="#E9B49F"/>
<stop offset="0.435" stop-color="#BC457F"/>
<stop offset="1" stop-color="#6F3FBF"/>
</linearGradient>
<linearGradient id="paint4_linear_3_82342" x1="681.006" y1="119.805" x2="215.321" y2="-7.25493" gradientUnits="userSpaceOnUse">
<stop stop-color="#E9B49F"/>
<stop offset="0.091" stop-color="#E9B49F"/>
<stop offset="0.435" stop-color="#BC457F"/>
<stop offset="1" stop-color="#6F3FBF"/>
</linearGradient>
<linearGradient id="paint5_linear_3_82342" x1="681.006" y1="119.805" x2="215.321" y2="-7.25493" gradientUnits="userSpaceOnUse">
<stop stop-color="#E9B49F"/>
<stop offset="0.091" stop-color="#E9B49F"/>
<stop offset="0.435" stop-color="#BC457F"/>
<stop offset="1" stop-color="#6F3FBF"/>
</linearGradient>
<linearGradient id="paint6_linear_3_82342" x1="681.006" y1="119.805" x2="215.321" y2="-7.25493" gradientUnits="userSpaceOnUse">
<stop stop-color="#E9B49F"/>
<stop offset="0.091" stop-color="#E9B49F"/>
<stop offset="0.435" stop-color="#BC457F"/>
<stop offset="1" stop-color="#6F3FBF"/>
</linearGradient>
<linearGradient id="paint7_linear_3_82342" x1="681.006" y1="119.805" x2="215.321" y2="-7.25493" gradientUnits="userSpaceOnUse">
<stop stop-color="#E9B49F"/>
<stop offset="0.091" stop-color="#E9B49F"/>
<stop offset="0.435" stop-color="#BC457F"/>
<stop offset="1" stop-color="#6F3FBF"/>
</linearGradient>
<linearGradient id="paint8_linear_3_82342" x1="681.006" y1="119.805" x2="215.321" y2="-7.25493" gradientUnits="userSpaceOnUse">
<stop stop-color="#E9B49F"/>
<stop offset="0.091" stop-color="#E9B49F"/>
<stop offset="0.435" stop-color="#BC457F"/>
<stop offset="1" stop-color="#6F3FBF"/>
</linearGradient>
<linearGradient id="paint9_linear_3_82342" x1="681.006" y1="119.805" x2="215.321" y2="-7.25493" gradientUnits="userSpaceOnUse">
<stop stop-color="#E9B49F"/>
<stop offset="0.091" stop-color="#E9B49F"/>
<stop offset="0.435" stop-color="#BC457F"/>
<stop offset="1" stop-color="#6F3FBF"/>
</linearGradient>
<linearGradient id="paint10_linear_3_82342" x1="681.006" y1="119.805" x2="215.321" y2="-7.25493" gradientUnits="userSpaceOnUse">
<stop stop-color="#E9B49F"/>
<stop offset="0.091" stop-color="#E9B49F"/>
<stop offset="0.435" stop-color="#BC457F"/>
<stop offset="1" stop-color="#6F3FBF"/>
</linearGradient>
<linearGradient id="paint11_linear_3_82342" x1="681.006" y1="119.805" x2="215.321" y2="-7.25493" gradientUnits="userSpaceOnUse">
<stop stop-color="#E9B49F"/>
<stop offset="0.091" stop-color="#E9B49F"/>
<stop offset="0.435" stop-color="#BC457F"/>
<stop offset="1" stop-color="#6F3FBF"/>
</linearGradient>
<linearGradient id="paint12_linear_3_82342" x1="681.006" y1="119.805" x2="215.321" y2="-7.25493" gradientUnits="userSpaceOnUse">
<stop stop-color="#E9B49F"/>
<stop offset="0.091" stop-color="#E9B49F"/>
<stop offset="0.435" stop-color="#BC457F"/>
<stop offset="1" stop-color="#6F3FBF"/>
</linearGradient>
</defs>
</svg>
